<svg width="29" height="29" viewBox="0 0 29 29" fill="none" xmlns="http://www.w3.org/2000/svg">
<path id="Vector" d="M22.5315 -0.715406C22.6215 -0.805618 22.7284 -0.877192 22.846 -0.926027C22.9637 -0.974862 23.0899 -1 23.2173 -1C23.3447 -1 23.4709 -0.974862 23.5886 -0.926027C23.7063 -0.877192 23.8132 -0.805618 23.9032 -0.715406L29.7154 5.09684C29.8056 5.18682 29.8772 5.29372 29.926 5.41141C29.9749 5.5291 30 5.65527 30 5.78269C30 5.9101 29.9749 6.03627 29.926 6.15396C29.8772 6.27165 29.8056 6.37855 29.7154 6.46853L10.3413 25.8427C10.2483 25.935 10.1376 26.0075 10.0158 26.0558L0.328691 29.9306C0.15265 30.0011 -0.0402008 30.0183 -0.225953 29.9802C-0.411705 29.9421 -0.58219 29.8504 -0.716272 29.7163C-0.850353 29.5822 -0.942136 29.4117 -0.98024 29.226C-1.01834 29.0402 -1.00109 28.8473 -0.930629 28.6713L2.9442 18.9842C2.9925 18.8624 3.065 18.7517 3.15732 18.6587L22.5315 -0.715406ZM20.7122 3.84527L25.1547 8.28776L27.6598 5.78269L23.2173 1.34019L20.7122 3.84527ZM23.785 9.65752L19.3425 5.21502L6.74929 17.8082V18.3759H7.71799C7.97491 18.3759 8.2213 18.4779 8.40297 18.6596C8.58464 18.8413 8.6867 19.0877 8.6867 19.3446V20.3133H9.65541C9.91232 20.3133 10.1587 20.4154 10.3404 20.597C10.5221 20.7787 10.6241 21.0251 10.6241 21.282V22.2507H11.1918L23.785 9.65752ZM4.87387 19.6836L4.6685 19.889L1.70813 27.2919L9.11099 24.3315L9.31636 24.1261C9.13157 24.0571 8.97226 23.9333 8.85974 23.7712C8.74722 23.6092 8.68685 23.4167 8.6867 23.2194V22.2507H7.71799C7.46108 22.2507 7.21468 22.1487 7.03301 21.967C6.85135 21.7853 6.74929 21.5389 6.74929 21.282V20.3133H5.78058C5.58331 20.3132 5.39079 20.2528 5.22876 20.1403C5.06673 20.0277 4.94291 19.8684 4.87387 19.6836Z" fill="#6F6F6F"/>
</svg>
