<svg width="19" height="20" viewBox="0 0 19 20" fill="none" xmlns="http://www.w3.org/2000/svg">
<g clip-path="url(#clip0_9_11)">
<path d="M6.53125 7.03125C6.68872 7.03125 6.83974 7.09381 6.95109 7.20516C7.06244 7.31651 7.125 7.46753 7.125 7.625V14.75C7.125 14.9075 7.06244 15.0585 6.95109 15.1698C6.83974 15.2812 6.68872 15.3438 6.53125 15.3438C6.37378 15.3438 6.22276 15.2812 6.11141 15.1698C6.00006 15.0585 5.9375 14.9075 5.9375 14.75V7.625C5.9375 7.46753 6.00006 7.31651 6.11141 7.20516C6.22276 7.09381 6.37378 7.03125 6.53125 7.03125ZM9.5 7.03125C9.65747 7.03125 9.8085 7.09381 9.91985 7.20516C10.0312 7.31651 10.0938 7.46753 10.0938 7.625V14.75C10.0938 14.9075 10.0312 15.0585 9.91985 15.1698C9.8085 15.2812 9.65747 15.3438 9.5 15.3438C9.34253 15.3438 9.19151 15.2812 9.08016 15.1698C8.96881 15.0585 8.90625 14.9075 8.90625 14.75V7.625C8.90625 7.46753 8.96881 7.31651 9.08016 7.20516C9.19151 7.09381 9.34253 7.03125 9.5 7.03125ZM13.0625 7.625C13.0625 7.46753 12.9999 7.31651 12.8886 7.20516C12.7772 7.09381 12.6262 7.03125 12.4688 7.03125C12.3113 7.03125 12.1603 7.09381 12.0489 7.20516C11.9376 7.31651 11.875 7.46753 11.875 7.625V14.75C11.875 14.9075 11.9376 15.0585 12.0489 15.1698C12.1603 15.2812 12.3113 15.3438 12.4688 15.3438C12.6262 15.3438 12.7772 15.2812 12.8886 15.1698C12.9999 15.0585 13.0625 14.9075 13.0625 14.75V7.625Z" fill="#6F6F6F"/>
<path d="M17.2188 4.0625C17.2188 4.37744 17.0936 4.67949 16.8709 4.90219C16.6482 5.12489 16.3462 5.25 16.0312 5.25H15.4375V15.9375C15.4375 16.5674 15.1873 17.1715 14.7419 17.6169C14.2965 18.0623 13.6924 18.3125 13.0625 18.3125H5.9375C5.30761 18.3125 4.70352 18.0623 4.25812 17.6169C3.81272 17.1715 3.5625 16.5674 3.5625 15.9375V5.25H2.96875C2.65381 5.25 2.35176 5.12489 2.12906 4.90219C1.90636 4.67949 1.78125 4.37744 1.78125 4.0625V2.875C1.78125 2.56006 1.90636 2.25801 2.12906 2.03531C2.35176 1.81261 2.65381 1.6875 2.96875 1.6875H7.125C7.125 1.37256 7.25011 1.07051 7.47281 0.847811C7.69551 0.625111 7.99756 0.5 8.3125 0.5L10.6875 0.5C11.0024 0.5 11.3045 0.625111 11.5272 0.847811C11.7499 1.07051 11.875 1.37256 11.875 1.6875H16.0312C16.3462 1.6875 16.6482 1.81261 16.8709 2.03531C17.0936 2.25801 17.2188 2.56006 17.2188 2.875V4.0625ZM4.89013 5.25L4.75 5.32006V15.9375C4.75 16.2524 4.87511 16.5545 5.09781 16.7772C5.32051 16.9999 5.62256 17.125 5.9375 17.125H13.0625C13.3774 17.125 13.6795 16.9999 13.9022 16.7772C14.1249 16.5545 14.25 16.2524 14.25 15.9375V5.32006L14.1099 5.25H4.89013ZM2.96875 4.0625H16.0312V2.875H2.96875V4.0625Z" fill="#6F6F6F"/>
</g>
<defs>
<clipPath id="clip0_9_11">
<rect width="19" height="19" fill="white" transform="translate(0 0.5)"/>
</clipPath>
</defs>
</svg>
